<svg id="Layer_1" data-name="Layer 1" xmlns="http://www.w3.org/2000/svg" xmlns:xlink="http://www.w3.org/1999/xlink" viewBox="0 0 300 300"><defs><style>.cls-1{fill:url(#Degradado_sin_nombre_187);}.cls-2{fill:url(#Degradado_sin_nombre_187-2);}.cls-3{fill:url(#Degradado_sin_nombre_187-3);}.cls-4{fill:url(#Degradado_sin_nombre_198);}</style><linearGradient id="Degradado_sin_nombre_187" x1="51.56" y1="162.74" x2="246.79" y2="-32.48" gradientUnits="userSpaceOnUse"><stop offset="0" stop-color="#0b003a"/><stop offset="0.11" stop-color="#0e1142"/><stop offset="0.33" stop-color="#163c55"/><stop offset="0.63" stop-color="#238375"/><stop offset="1" stop-color="#34e3a0"/></linearGradient><linearGradient id="Degradado_sin_nombre_187-2" x1="30.44" y1="96.89" x2="195.34" y2="261.8" xlink:href="#Degradado_sin_nombre_187"/><linearGradient id="Degradado_sin_nombre_187-3" x1="248.22" y1="107.69" x2="156.37" y2="168.79" xlink:href="#Degradado_sin_nombre_187"/><linearGradient id="Degradado_sin_nombre_198" x1="220.03" y1="127.75" x2="286.01" y2="193.73" gradientUnits="userSpaceOnUse"><stop offset="0" stop-color="#42dba3"/><stop offset="1" stop-color="#3b47fb"/></linearGradient></defs><path class="cls-1" d="M137.82,62.39a87.93,87.93,0,0,1,66.82,30.75A25.31,25.31,0,1,0,243.07,60.2,138.48,138.48,0,0,0,137.82,11.78C61.41,11.78-.75,73.94-.75,150.35a137.82,137.82,0,0,0,29.84,85.74C3.14,124.29,73.27,60,137.82,62.39Z"/><path class="cls-2" d="M240.33,204.8a25.29,25.29,0,0,0-35.68,2.75A88,88,0,1,1,137.82,62.39C73.27,60,3.14,124.29,29.09,236.09a138.44,138.44,0,0,0,214,4.39A25.31,25.31,0,0,0,240.33,204.8Z"/><path class="cls-3" d="M149.46,125h-4a25.31,25.31,0,0,0,0,50.61h84.89C222.51,125.62,149.46,125,149.46,125Z"/><path class="cls-4" d="M274.7,125H149.46s73,.58,80.91,50.61H274.7a25.31,25.31,0,0,0,0-50.61Z"/></svg>