<svg id="Layer_1" data-name="Layer 1" xmlns="http://www.w3.org/2000/svg" xmlns:xlink="http://www.w3.org/1999/xlink" viewBox="0 0 50 50"><defs><style>.cls-1{fill:url(#Degradado_sin_nombre_187);}.cls-2{fill:url(#Degradado_sin_nombre_187-2);}.cls-3{fill:url(#Degradado_sin_nombre_187-3);}.cls-4{fill:url(#Degradado_sin_nombre_198);}</style><linearGradient id="Degradado_sin_nombre_187" x1="8.48" y1="26.93" x2="40.94" y2="-5.53" gradientUnits="userSpaceOnUse"><stop offset="0" stop-color="#0b003a"/><stop offset="0.11" stop-color="#0e1142"/><stop offset="0.33" stop-color="#163c55"/><stop offset="0.63" stop-color="#238375"/><stop offset="1" stop-color="#34e3a0"/></linearGradient><linearGradient id="Degradado_sin_nombre_187-2" x1="4.97" y1="15.98" x2="32.39" y2="43.4" xlink:href="#Degradado_sin_nombre_187"/><linearGradient id="Degradado_sin_nombre_187-3" x1="41.18" y1="17.77" x2="25.91" y2="27.93" xlink:href="#Degradado_sin_nombre_187"/><linearGradient id="Degradado_sin_nombre_198" x1="36.49" y1="21.11" x2="47.46" y2="32.08" gradientUnits="userSpaceOnUse"><stop offset="0" stop-color="#42dba3"/><stop offset="1" stop-color="#3b47fb"/></linearGradient></defs><path class="cls-1" d="M22.82,10.24a14.61,14.61,0,0,1,11.11,5.12,4.21,4.21,0,0,0,6.39-5.48A23,23,0,0,0,4.75,39.12C.43,20.54,12.09,9.85,22.82,10.24Z"/><path class="cls-2" d="M39.86,33.92a4.2,4.2,0,0,0-5.93.46A14.62,14.62,0,1,1,22.82,10.24C12.09,9.85.43,20.54,4.75,39.12a23,23,0,0,0,35.57.73A4.2,4.2,0,0,0,39.86,33.92Z"/><path class="cls-3" d="M24.76,20.66H24.1a4.21,4.21,0,1,0,0,8.41H38.21C36.9,20.76,24.76,20.66,24.76,20.66Z"/><path class="cls-4" d="M45.58,20.66H24.76s12.14.1,13.45,8.41h7.37a4.21,4.21,0,1,0,0-8.41Z"/></svg>